<?xml version="1.0" standalone="no"?>
<!DOCTYPE svg PUBLIC "-//W3C//DTD SVG 20010904//EN" "http://www.w3.org/TR/2001/REC-SVG-20010904/DTD/svg10.dtd">
<svg xmlns="http://www.w3.org/2000/svg" version="1.0" width="993.000000pt" height="654.000000pt" viewBox="0 0 993.000000 654.000000" preserveAspectRatio="xMidYMid meet">
<metadata>
Created by potrace 1.16, written by Peter Selinger 2001-2019
<meta name="Producer" content="Online-Convert"/></metadata>
<g transform="translate(0.000000,654.000000) scale(0.100000,-0.100000)" fill="#000000" stroke="none">
<path d="M0 3270 l0 -3270 4965 0 4965 0 0 3270 0 3270 -4965 0 -4965 0 0 -3270z m5252 1879 c181 -45 365 -147 483 -268 l39 -41 -154 -155 -155 -155 -65 56 c-79 67 -188 122 -272 135 -35 6 -72 13 -83 15 l-21 3 22 207 c13 113 25 213 28 221 7 17 59 12 178 -18z m-397 -194 c25 -104 48 -197 50 -206 4 -11 -12 -21 -67 -38 -94 -30 -152 -60 -211 -110 -145 -121 -218 -277 -218 -466 0 -96 18 -180 52 -246 11 -23 19 -42 17 -44 -7 -7 -392 -185 -394 -182 -10 10 -69 172 -85 235 -27 101 -36 295 -19 399 27 172 96 334 203 475 132 175 321 301 552 368 33 10 63 15 67 11 4 -3 27 -91 53 -196z m1117 -437 c53 -136 71 -231 71 -383 -1 -175 -26 -287 -99 -440 -135 -283 -390 -490 -702 -567 -70 -18 -116 -22 -242 -22 -136 0 -167 3 -252 26 -112 31 -240 88 -324 146 -76 52 -174 140 -174 156 0 7 68 79 150 160 l151 147 55 -50 c140 -124 333 -175 519 -136 267 56 474 310 475 583 0 62 -25 178 -52 241 -10 24 -16 47 -12 50 8 9 377 179 389 180 6 1 27 -41 47 -91z m-3020 -1927 c66 -21 129 -72 162 -131 29 -51 31 -62 31 -150 0 -79 -4 -102 -23 -137 -35 -66 -77 -108 -134 -134 -47 -20 -72 -24 -215 -27 l-163 -4 0 -164 0 -164 -100 0 -100 0 0 466 0 466 253 -5 c154 -2 266 -9 289 -16z m1926 13 c20 -6 22 -12 22 -70 l0 -64 -43 0 c-63 0 -87 -21 -87 -76 l0 -44 60 0 60 0 0 -60 0 -60 -60 0 -60 0 0 -275 0 -275 -95 0 -95 0 0 275 0 275 -55 0 -55 0 0 60 0 60 54 0 53 0 5 64 c11 127 87 192 228 195 25 0 55 -2 68 -5z m1832 -154 l0 -100 65 0 65 0 0 -60 0 -60 -65 0 -65 0 0 -193 c0 -137 3 -196 12 -205 7 -7 36 -12 65 -12 l53 0 0 -76 0 -76 -107 3 c-124 5 -166 22 -195 79 -16 30 -18 66 -18 258 l0 222 -55 0 -55 0 0 60 0 60 55 0 55 0 0 100 0 100 95 0 95 0 0 -100z m-3022 -170 l3 -85 -63 0 c-79 0 -123 -24 -155 -84 -22 -42 -23 -54 -23 -238 l0 -193 -95 0 -95 0 0 335 0 335 90 0 90 0 0 -57 0 -58 25 37 c40 59 117 99 185 95 l35 -2 3 -85z m496 75 c139 -42 222 -154 233 -314 8 -113 -20 -201 -87 -274 -74 -81 -128 -102 -260 -102 -95 0 -111 3 -162 28 -99 49 -159 134 -179 255 -32 196 72 371 246 413 52 12 158 9 209 -6z m1237 -12 c107 -48 179 -162 187 -294 l5 -79 -243 0 -243 0 6 -42 c3 -23 14 -53 24 -67 59 -80 205 -81 264 -2 22 30 25 31 102 31 77 0 78 -1 72 -22 -11 -38 -51 -101 -82 -130 -76 -73 -221 -97 -343 -58 -91 29 -149 79 -192 168 -30 61 -33 74 -33 162 0 86 3 101 31 160 66 138 174 203 324 197 48 -2 92 -11 121 -24z m780 -5 c89 -41 142 -105 155 -187 l7 -41 -89 0 -89 0 -16 39 c-21 49 -57 73 -117 78 -95 9 -154 -65 -161 -200 -6 -139 43 -217 141 -224 71 -5 113 20 141 88 l21 49 83 0 83 0 0 -29 c0 -47 -60 -151 -108 -188 -122 -93 -335 -81 -445 25 -86 83 -121 201 -99 333 24 139 95 228 216 271 74 26 204 19 277 -14z m1169 16 c150 -45 232 -166 232 -344 1 -149 -62 -259 -180 -317 -51 -25 -67 -28 -162 -28 -93 0 -112 3 -160 26 -70 33 -126 89 -159 159 -23 49 -26 67 -26 165 0 92 4 118 22 157 25 55 94 133 137 155 85 45 202 55 296 27z m-3372 -971 c8 -11 11 -29 7 -48 -9 -44 -9 -68 -1 -87 5 -12 4 -18 -3 -18 -7 0 -17 14 -22 30 -15 41 -56 43 -61 3 -2 -16 -7 -28 -13 -28 -11 0 -20 139 -10 163 8 20 85 9 103 -15z m435 8 c5 -5 12 -33 15 -60 7 -73 -14 -101 -73 -101 l-45 0 0 83 c0 46 3 87 8 91 9 10 82 0 95 -13z m362 9 c23 -9 26 -15 24 -45 -2 -18 0 -37 4 -41 12 -13 8 -52 -9 -68 -9 -9 -32 -16 -55 -16 l-39 0 0 90 c0 89 0 90 24 90 14 0 37 -5 51 -10z m-1535 -19 c16 -31 12 -112 -7 -133 -18 -20 -54 -23 -84 -8 -15 9 -19 22 -19 70 0 83 4 90 56 90 33 0 46 -5 54 -19z"/>
<path d="M5144 5001 c-4 -42 -8 -100 -8 -129 l-1 -54 70 -22 c82 -26 119 -45 197 -97 31 -22 61 -39 65 -39 5 0 48 40 97 89 l88 89 -73 55 c-114 85 -262 153 -385 176 l-43 8 -7 -76z"/>
<path d="M4667 5025 c-20 -8 -70 -31 -110 -52 l-72 -38 134 -3 c74 -1 136 0 138 2 3 3 0 28 -7 55 -13 56 -20 59 -83 36z"/>
<path d="M4301 4774 c-34 -37 -61 -71 -61 -75 0 -5 79 -9 176 -9 160 0 178 2 204 20 16 11 62 36 103 56 62 29 74 39 70 55 -5 18 -16 19 -218 19 l-213 0 -61 -66z"/>
<path d="M4142 4533 l-32 -68 138 -3 c133 -3 137 -2 152 20 8 12 30 42 48 65 17 24 32 45 32 48 0 3 -69 5 -153 5 l-154 0 -31 -67z"/>
<path d="M4071 4320 c-21 -96 -28 -90 118 -90 l129 0 11 48 c6 26 13 57 17 70 l6 22 -135 0 -135 0 -11 -50z"/>
<path d="M4062 4063 l3 -68 133 -3 c124 -2 133 -1 128 15 -2 10 -8 42 -11 71 l-7 52 -124 0 -125 0 3 -67z"/>
<path d="M4090 3892 c0 -8 31 -104 35 -110 3 -4 235 107 235 113 0 3 -61 5 -135 5 -74 0 -135 -4 -135 -8z"/>
<path d="M5763 4442 c-56 -26 -105 -51 -109 -55 -4 -3 1 -35 12 -69 25 -87 25 -270 0 -353 -40 -133 -83 -204 -185 -305 -98 -97 -158 -135 -274 -174 -197 -66 -430 -28 -608 99 l-46 33 -87 -87 c-47 -47 -86 -91 -86 -97 0 -16 121 -101 207 -143 358 -180 780 -114 1075 168 214 204 319 484 288 768 -13 124 -49 257 -70 260 -8 2 -61 -19 -117 -45z"/>
<path d="M2618 2444 c-5 -4 -8 -67 -8 -141 l0 -133 108 0 c129 0 173 11 206 51 21 24 26 41 26 82 0 110 -42 139 -209 145 -64 2 -119 1 -123 -4z"/>
<path d="M4010 2219 c-71 -30 -105 -108 -98 -229 7 -113 48 -173 130 -186 56 -10 104 3 135 36 39 42 51 83 52 175 1 91 -22 153 -71 188 -31 23 -112 32 -148 16z"/>
<path d="M5210 2213 c-38 -20 -80 -75 -80 -104 0 -18 11 -19 150 -19 l150 0 -18 46 c-9 26 -29 56 -44 67 -37 28 -114 33 -158 10z"/>
<path d="M7184 2211 c-48 -29 -75 -74 -84 -142 -17 -118 18 -221 84 -253 81 -38 172 -8 211 69 30 60 28 204 -3 262 -39 75 -140 106 -208 64z"/>
</g>
</svg>
